<svg xmlns="http://www.w3.org/2000/svg" id="Layer_1" data-name="Layer 1" viewBox="0 0 400.19 96.14"><defs><style>.cls-1,.cls-2,.cls-6{fill:#fff;}.cls-2{font-size:31.94px;font-family:Arial-Black, Arial Black;font-weight:800;}.cls-3{letter-spacing:0.02em;}.cls-4{letter-spacing:-0.02em;}.cls-5{letter-spacing:0.02em;}.cls-6{font-size:19.77px;font-family:ArialMT, Arial;}.cls-7{letter-spacing:-0.02em;}</style></defs><title>LOGOWHITE</title><path class="cls-1" d="M31.22,72.9a2.37,2.37,0,0,1-2.07,1.53c-1.33,0-2.41-1.38-2.41-3.09s1.08-3.08,2.41-3.08a2.35,2.35,0,0,1,2.07,1.53h5.89V47.27H18.68a2.33,2.33,0,0,1-2,1.34c-1.33,0-2.41-1.38-2.41-3.08s1.08-3.09,2.41-3.09a2.43,2.43,0,0,1,2.15,1.72H37.11V23.36H30A2.37,2.37,0,0,1,28,24.89c-1.33,0-2.41-1.39-2.41-3.09s1.08-3.09,2.41-3.09A2.37,2.37,0,0,1,30,20.24h7.08V6.38c-12.39,0-23,10.32-27.63,25h17.6a2.38,2.38,0,0,1,2.07-1.53c1.33,0,2.41,1.38,2.41,3.09s-1.08,3.08-2.41,3.08a2.36,2.36,0,0,1-2.07-1.53H8.63A55.22,55.22,0,0,0,7.07,47.65a57,57,0,0,0,.54,7.81H27.08a2.38,2.38,0,0,1,2.07-1.53c1.33,0,2.41,1.38,2.41,3.09s-1.08,3.08-2.41,3.08a2.38,2.38,0,0,1-2.07-1.53H8.14c3.49,17.5,15.13,30.36,29,30.36v-16Z"></path><path class="cls-1" d="M45.38,72.9a2.38,2.38,0,0,0,2.07,1.53c1.33,0,2.41-1.38,2.41-3.09s-1.08-3.08-2.41-3.08a2.36,2.36,0,0,0-2.07,1.53H39.49V47.27H57.93a2.31,2.31,0,0,0,2,1.34c1.33,0,2.41-1.38,2.41-3.08s-1.08-3.09-2.41-3.09a2.41,2.41,0,0,0-2.14,1.72H39.49V23.36h7.08a2.37,2.37,0,0,0,2.07,1.53c1.33,0,2.41-1.39,2.41-3.09S50,18.71,48.64,18.71a2.37,2.37,0,0,0-2.07,1.53H39.49V6.38c12.4,0,23,10.32,27.63,25H49.52a2.37,2.37,0,0,0-2.07-1.53C46.12,29.89,45,31.27,45,33s1.08,3.08,2.41,3.08a2.35,2.35,0,0,0,2.07-1.53H68a55.22,55.22,0,0,1,1.56,13.12A57,57,0,0,1,69,55.46H49.52a2.37,2.37,0,0,0-2.07-1.53C46.12,53.93,45,55.31,45,57s1.08,3.08,2.41,3.08a2.37,2.37,0,0,0,2.07-1.53H68.46c-3.48,17.5-15.13,30.36-29,30.36v-16Z"></path><text class="cls-2" transform="translate(78.69 55.7) scale(0.97 1)">B<tspan class="cls-3" x="24.85" y="0">r</tspan><tspan x="39.57" y="0">ain A</tspan><tspan class="cls-3" x="128.32" y="0">r</tspan><tspan class="cls-4" x="143.04" y="0">c</tspan><tspan x="163.8" y="0">hitectu</tspan><tspan class="cls-5" x="288.02" y="0">r</tspan><tspan x="302.71" y="0">e</tspan></text><text class="cls-6" transform="translate(81.83 85.19) scale(0.97 1)">PROJEC<tspan class="cls-7" x="80.21" y="0">T</tspan></text></svg>